<mxfile host="app.diagrams.net" modified="2020-11-07T00:56:37.052Z" agent="5.0 (Windows NT 10.0; Win64; x64) AppleWebKit/537.36 (KHTML, like Gecko) Chrome/86.0.4240.183 Safari/537.36" etag="p6uPFiDatWQraVgKDADH" version="13.8.9-1" type="github">
  <diagram name="Page-1" id="e7e014a7-5840-1c2e-5031-d8a46d1fe8dd">
    <mxGraphModel dx="1038" dy="548" grid="1" gridSize="10" guides="1" tooltips="1" connect="1" arrows="1" fold="1" page="1" pageScale="1" pageWidth="1169" pageHeight="826" background="#ffffff" math="0" shadow="0">
      <root>
        <mxCell id="0" />
        <mxCell id="1" parent="0" />
        <mxCell id="vJJKtXqL6xEOvEz8XE9U-52" value="&lt;b&gt;&lt;font style=&quot;font-size: 14px&quot;&gt;package&lt;/font&gt;&lt;/b&gt; Notificar Stock" style="shape=umlFrame;whiteSpace=wrap;html=1;width=170;height=30;fontSize=13;" parent="1" vertex="1">
          <mxGeometry x="320" y="240" width="530" height="240" as="geometry" />
        </mxCell>
        <mxCell id="vJJKtXqL6xEOvEz8XE9U-53" value="Ver inventario" style="ellipse;whiteSpace=wrap;html=1;" parent="1" vertex="1">
          <mxGeometry x="480" y="330" width="140" height="70" as="geometry" />
        </mxCell>
        <mxCell id="vJJKtXqL6xEOvEz8XE9U-54" value="Recibir notificaciones" style="ellipse;whiteSpace=wrap;html=1;" parent="1" vertex="1">
          <mxGeometry x="680" y="270" width="140" height="70" as="geometry" />
        </mxCell>
        <mxCell id="vJJKtXqL6xEOvEz8XE9U-55" value="Leer notificaciones" style="ellipse;whiteSpace=wrap;html=1;" parent="1" vertex="1">
          <mxGeometry x="680" y="378" width="140" height="70" as="geometry" />
        </mxCell>
        <mxCell id="vJJKtXqL6xEOvEz8XE9U-56" value="&amp;lt;&amp;lt; extend&amp;nbsp;&amp;gt;&amp;gt;" style="html=1;verticalAlign=bottom;endArrow=open;dashed=1;endSize=8;exitX=0;exitY=0.5;exitDx=0;exitDy=0;entryX=1;entryY=1;entryDx=0;entryDy=0;" parent="1" source="vJJKtXqL6xEOvEz8XE9U-55" target="vJJKtXqL6xEOvEz8XE9U-53" edge="1">
          <mxGeometry relative="1" as="geometry">
            <mxPoint x="840" y="410" as="sourcePoint" />
            <mxPoint x="760" y="410" as="targetPoint" />
          </mxGeometry>
        </mxCell>
        <mxCell id="vJJKtXqL6xEOvEz8XE9U-57" value="&amp;lt;&amp;lt; extend &amp;gt;&amp;gt;" style="html=1;verticalAlign=bottom;endArrow=open;dashed=1;endSize=8;exitX=0;exitY=0.5;exitDx=0;exitDy=0;entryX=1;entryY=0;entryDx=0;entryDy=0;" parent="1" source="vJJKtXqL6xEOvEz8XE9U-54" target="vJJKtXqL6xEOvEz8XE9U-53" edge="1">
          <mxGeometry relative="1" as="geometry">
            <mxPoint x="840" y="410" as="sourcePoint" />
            <mxPoint x="760" y="410" as="targetPoint" />
          </mxGeometry>
        </mxCell>
        <mxCell id="vJJKtXqL6xEOvEz8XE9U-65" style="edgeStyle=orthogonalEdgeStyle;rounded=0;orthogonalLoop=1;jettySize=auto;html=1;entryX=0;entryY=0.5;entryDx=0;entryDy=0;" parent="1" source="vJJKtXqL6xEOvEz8XE9U-59" target="vJJKtXqL6xEOvEz8XE9U-53" edge="1">
          <mxGeometry relative="1" as="geometry" />
        </mxCell>
        <mxCell id="vJJKtXqL6xEOvEz8XE9U-59" value="Encargado de&lt;br&gt;Farmacia" style="shape=umlActor;verticalLabelPosition=bottom;verticalAlign=top;html=1;" parent="1" vertex="1">
          <mxGeometry x="360" y="330" width="30" height="60" as="geometry" />
        </mxCell>
      </root>
    </mxGraphModel>
  </diagram>
</mxfile>
